<svg width="65" height="64" viewBox="0 0 65 64" fill="none" xmlns="http://www.w3.org/2000/svg">
<rect x="0.5" width="64" height="64" rx="32" fill="black"/>
<g clip-path="url(#clip0_1116_3067)">
<path fill-rule="evenodd" clip-rule="evenodd" d="M32.5 21C28.6445 21 25.5 24.1445 25.5 28C25.5 30.4102 26.7305 32.5508 28.5938 33.8125C25.0273 35.3438 22.5 38.8828 22.5 43H24.5C24.5 40.1094 26.0273 37.5938 28.3125 36.1875C28.9084 35.7727 29.79 35.4522 30.1562 35.3438C30.8984 35.1172 31.6797 35 32.5 35C33.3203 35 34.1016 35.1172 34.8438 35.3438C35.2986 35.5187 36.3042 35.9323 36.6875 36.1875C38.9727 37.5938 40.5 40.1094 40.5 43H42.5C42.5 38.8828 39.9727 35.3438 36.4062 33.8125C38.2695 32.5508 39.5 30.4102 39.5 28C39.5 24.1445 36.3555 21 32.5 21ZM37.5 28C37.5 25.2266 35.2734 23 32.5 23C29.7266 23 27.5 25.2266 27.5 28C27.5 30.7734 29.7266 33 32.5 33C35.2734 33 37.5 30.7734 37.5 28Z" fill="#A3A3A3"/>
</g>
<defs>
<clipPath id="clip0_1116_3067">
<rect width="32" height="32" fill="white" transform="translate(16.5 16)"/>
</clipPath>
</defs>
</svg>
