<svg width="157" height="32" viewBox="0 0 157 32" fill="none" xmlns="http://www.w3.org/2000/svg">
<path d="M0.199463 31.415V13.0571H10.2559V14.1714H1.48089V21.1078H8.83518V22.2221H1.48089V30.3007H10.5345V31.415H0.199463Z" fill="#00327A"/>
<path d="M20.173 32C19.393 32 18.6316 31.8886 17.8887 31.6657C17.1459 31.4243 16.4866 31.0343 15.9109 30.4957C15.3352 29.9386 14.8709 29.1864 14.518 28.2393C14.1837 27.2736 14.0166 26.0757 14.0166 24.6457V13.3079H15.298V24.5064C15.298 26.1221 15.5209 27.3943 15.9666 28.3229C16.4309 29.2514 17.0344 29.9014 17.7773 30.2729C18.5202 30.6443 19.3187 30.83 20.173 30.83C21.0644 30.83 21.8909 30.6443 22.6523 30.2729C23.4137 29.9014 24.0266 29.2514 24.4909 28.3229C24.9552 27.3943 25.1873 26.1221 25.1873 24.5064V13.3079H26.3852V24.6457C26.3852 26.0757 26.2087 27.2736 25.8559 28.2393C25.5216 29.1864 25.0573 29.9386 24.463 30.4957C23.8687 31.0343 23.2002 31.4243 22.4573 31.6657C21.733 31.8886 20.9716 32 20.173 32Z" fill="#00327A"/>
<path d="M46.0802 31.3036C44.5202 31.3036 43.0902 30.96 41.7902 30.2729C40.5088 29.5672 39.4781 28.5179 38.6981 27.125C37.9181 25.7322 37.5281 24.0236 37.5281 21.9993C37.5281 20.495 37.7509 19.1579 38.1966 17.9879C38.6609 16.7993 39.2924 15.7965 40.0909 14.9793C40.8895 14.1622 41.7995 13.54 42.8209 13.1129C43.8609 12.6857 44.9566 12.4722 46.1081 12.4722C47.2781 12.4722 48.3274 12.7043 49.2559 13.1686C50.1845 13.6329 50.9552 14.19 51.5681 14.84L49.3952 17.3193C48.9495 16.8922 48.4666 16.5765 47.9466 16.3722C47.4266 16.1493 46.8416 16.0379 46.1916 16.0379C45.3931 16.0379 44.6502 16.2793 43.9631 16.7622C43.2945 17.2265 42.7559 17.895 42.3474 18.7679C41.9388 19.6407 41.7345 20.6715 41.7345 21.86C41.7345 23.1043 41.9295 24.1722 42.3195 25.0636C42.7095 25.9365 43.2481 26.605 43.9352 27.0693C44.6409 27.5336 45.4488 27.7657 46.3588 27.7657C47.0645 27.7657 47.6959 27.6172 48.2531 27.32C48.8102 27.0229 49.3024 26.67 49.7295 26.2615L51.7909 28.685C51.0109 29.5579 50.1474 30.2172 49.2002 30.6629C48.2531 31.09 47.2131 31.3036 46.0802 31.3036Z" fill="#00327A"/>
<path d="M68.1035 31.3037V13.1409H73.2292C75.0864 13.1409 76.6928 13.4566 78.0485 14.088C79.4228 14.7194 80.4814 15.7037 81.2242 17.0409C81.9671 18.3594 82.3385 20.0587 82.3385 22.1387C82.3385 24.2187 81.9671 25.9366 81.2242 27.2923C80.4814 28.648 79.4414 29.6602 78.1042 30.3287C76.7857 30.9787 75.2442 31.3037 73.4799 31.3037H68.1035ZM72.1985 27.9887H72.9785C74.0185 27.9887 74.9192 27.803 75.6807 27.4316C76.4607 27.0602 77.0642 26.4473 77.4914 25.593C77.9185 24.7387 78.1321 23.5873 78.1321 22.1387C78.1321 20.6902 77.9185 19.5573 77.4914 18.7402C77.0642 17.9044 76.4607 17.3194 75.6807 16.9852C74.9192 16.6323 74.0185 16.4559 72.9785 16.4559H72.1985V27.9887Z" fill="#00327A"/>
<path d="M85.1243 31.3037L90.8071 13.1409H95.71L101.421 31.3037H97.075L94.7071 22.1109C94.4471 21.2009 94.1964 20.2352 93.955 19.2137C93.7136 18.1923 93.4721 17.208 93.2307 16.2609H93.1193C92.915 17.208 92.6921 18.1923 92.4507 19.2137C92.2093 20.2352 91.9586 21.2009 91.6986 22.1109L89.3028 31.3037H85.1243ZM88.8571 26.9859V23.7823H97.6043V26.9859H88.8571Z" fill="#00327A"/>
<path d="M104.206 31.3037V13.1409H109.332C111.189 13.1409 112.796 13.4566 114.151 14.088C115.526 14.7194 116.584 15.7037 117.327 17.0409C118.07 18.3594 118.441 20.0587 118.441 22.1387C118.441 24.2187 118.07 25.9366 117.327 27.2923C116.584 28.648 115.544 29.6602 114.207 30.3287C112.888 30.9787 111.347 31.3037 109.583 31.3037H104.206ZM108.301 27.9887H109.081C110.121 27.9887 111.022 27.803 111.783 27.4316C112.563 27.0602 113.167 26.4473 113.594 25.593C114.021 24.7387 114.235 23.5873 114.235 22.1387C114.235 20.6902 114.021 19.5573 113.594 18.7402C113.167 17.9044 112.563 17.3194 111.783 16.9852C111.022 16.6323 110.121 16.4559 109.081 16.4559H108.301V27.9887Z" fill="#00327A"/>
<path d="M121.227 31.3036L126.91 13.1408H131.813L137.523 31.3036H133.178L130.81 22.1108C130.55 21.2008 130.299 20.2351 130.058 19.2136C129.816 18.1922 129.575 17.2079 129.333 16.2608H129.222C129.018 17.2079 128.795 18.1922 128.553 19.2136C128.312 20.2351 128.061 21.2008 127.801 22.1108L125.406 31.3036H121.227ZM124.96 26.9858V23.7822H133.707V26.9858H124.96ZM131.311 12.0265C130.828 12.0265 130.392 11.9429 130.002 11.7758C129.631 11.6086 129.296 11.4229 128.999 11.2186C128.702 11.0143 128.433 10.8286 128.191 10.6615C127.95 10.4943 127.718 10.4108 127.495 10.4108C127.235 10.4108 127.012 10.5129 126.826 10.7172C126.641 10.9029 126.52 11.2558 126.464 11.7758L123.818 11.5808C123.911 10.1693 124.273 9.14791 124.904 8.51648C125.554 7.88505 126.371 7.56934 127.356 7.56934C127.838 7.56934 128.266 7.65291 128.637 7.82005C129.027 7.98719 129.371 8.17291 129.668 8.37719C129.965 8.58148 130.234 8.76719 130.476 8.93434C130.717 9.10148 130.949 9.18505 131.172 9.18505C131.432 9.18505 131.655 9.08291 131.841 8.87862C132.026 8.67434 132.147 8.32148 132.203 7.82005L134.849 8.01505C134.775 9.40791 134.413 10.4293 133.763 11.0793C133.113 11.7108 132.296 12.0265 131.311 12.0265Z" fill="#00327A"/>
<path d="M148.555 31.3036C146.921 31.3036 145.481 30.9229 144.237 30.1615C143.011 29.4 142.046 28.3136 141.34 26.9022C140.653 25.4907 140.309 23.7915 140.309 21.8043C140.309 19.8357 140.653 18.155 141.34 16.7622C142.046 15.3693 143.011 14.3107 144.237 13.5865C145.481 12.8436 146.921 12.4722 148.555 12.4722C150.189 12.4722 151.629 12.8436 152.873 13.5865C154.117 14.3107 155.083 15.3693 155.77 16.7622C156.457 18.155 156.801 19.8357 156.801 21.8043C156.801 23.7915 156.457 25.4907 155.77 26.9022C155.083 28.3136 154.117 29.4 152.873 30.1615C151.629 30.9229 150.189 31.3036 148.555 31.3036ZM148.555 27.7657C149.391 27.7657 150.106 27.5243 150.7 27.0415C151.313 26.54 151.777 25.8436 152.093 24.9522C152.427 24.0607 152.594 23.0115 152.594 21.8043C152.594 20.5972 152.427 19.5665 152.093 18.7122C151.777 17.8393 151.313 17.18 150.7 16.7343C150.106 16.27 149.391 16.0379 148.555 16.0379C147.738 16.0379 147.023 16.27 146.41 16.7343C145.797 17.18 145.324 17.8393 144.989 18.7122C144.674 19.5665 144.516 20.5972 144.516 21.8043C144.516 23.0115 144.674 24.0607 144.989 24.9522C145.324 25.8436 145.797 26.54 146.41 27.0415C147.023 27.5243 147.738 27.7657 148.555 27.7657Z" fill="#00327A"/>
<path d="M59.613 32.0001C57.2594 32.0001 55.3067 30.1796 55.1419 27.8317L54.2468 15.0756C54.1561 13.7838 55.5048 12.8835 56.6631 13.4626C56.7722 13.5172 56.887 13.5596 57.0054 13.5892L58.2618 13.9033C59.1489 14.1251 60.0771 14.1251 60.9643 13.9033L62.2206 13.5892C62.339 13.5596 62.4538 13.5172 62.5629 13.4626C63.7212 12.8835 65.0699 13.7838 64.9793 15.0756L64.0841 27.8317C63.9193 30.1796 61.9666 32.0001 59.613 32.0001Z" fill="#00327A"/>
<path d="M58.8779 23.4635C58.8287 23.1435 58.8451 22.8562 58.9271 22.6018C59.0174 22.3474 59.1405 22.1176 59.2965 21.9124C59.4524 21.7072 59.6124 21.5185 59.7766 21.3461C59.9489 21.1738 60.0925 21.0096 60.2074 20.8537C60.3223 20.6978 60.3798 20.5418 60.3798 20.3859C60.3798 20.2382 60.347 20.1192 60.2813 20.0289C60.2239 19.9386 60.1418 19.8729 60.0351 19.8319C59.9284 19.7909 59.8135 19.7704 59.6904 19.7704C59.4852 19.7704 59.3047 19.8196 59.1487 19.9181C59.001 20.0166 58.8451 20.1397 58.6809 20.2874L57.5237 19.2287C57.8274 18.884 58.1844 18.6049 58.5948 18.3916C59.0133 18.1782 59.4688 18.0715 59.9612 18.0715C60.4126 18.0715 60.823 18.1454 61.1923 18.2931C61.5616 18.4326 61.853 18.6624 62.0663 18.9825C62.2879 19.3025 62.3987 19.7211 62.3987 20.2382C62.3987 20.5336 62.3372 20.7921 62.2141 21.0137C62.0992 21.2353 61.9514 21.4405 61.7709 21.6293C61.5985 21.8098 61.4262 21.9904 61.2538 22.1709C61.0897 22.3515 60.9543 22.5443 60.8476 22.7495C60.7409 22.9547 60.6999 23.1927 60.7245 23.4635H58.8779ZM59.7889 26.615C59.436 26.615 59.1405 26.4919 58.9025 26.2457C58.6727 25.9913 58.5578 25.6877 58.5578 25.3347C58.5578 24.9736 58.6727 24.67 58.9025 24.4238C59.1405 24.1775 59.436 24.0544 59.7889 24.0544C60.15 24.0544 60.4455 24.1775 60.6752 24.4238C60.905 24.67 61.0199 24.9736 61.0199 25.3347C61.0199 25.6877 60.905 25.9913 60.6752 26.2457C60.4455 26.4919 60.15 26.615 59.7889 26.615Z" fill="white"/>
<path d="M64.3546 7.56934C64.3546 10.2617 62.172 12.4443 59.4796 12.4443C56.7872 12.4443 54.6046 10.2617 54.6046 7.56934C54.6046 4.87695 56.7872 2.69434 59.4796 2.69434C62.172 2.69434 64.3546 4.87695 64.3546 7.56934Z" fill="#00327A"/>
</svg>
