<?xml version="1.0" standalone="no"?>
<!DOCTYPE svg PUBLIC "-//W3C//DTD SVG 20010904//EN"
 "http://www.w3.org/TR/2001/REC-SVG-20010904/DTD/svg10.dtd">
<svg version="1.0" xmlns="http://www.w3.org/2000/svg"
 width="2000.000000pt" height="2000.000000pt" viewBox="0 0 2000.000000 2000.000000"
 preserveAspectRatio="xMidYMid meet">

<g transform="translate(0.000000,2000.000000) scale(0.100000,-0.100000)"
fill="#000000" stroke="none">
<path d="M12910 8393 c-59 -11 -167 -73 -223 -129 -212 -212 -171 -568 86
-726 26 -16 47 -37 47 -46 0 -12 -121 -479 -146 -564 -5 -17 16 -18 340 -18
294 0 346 2 346 14 0 13 -28 119 -121 464 -17 63 -29 115 -27 116 2 1 26 17
55 35 157 98 243 286 214 465 -29 176 -148 318 -316 376 -56 19 -183 26 -255
13z"/>
</g>
</svg>
